# xmcd
#
# Track frame offsets: 
#        150
#        17006
#        30346
#        48008
#        60548
#        77622
#
# Disc length: 1165 seconds
#
# Revision: 0
# Processed by: cddbd v1.5.2PL0 Copyright (c) Steve Scherf et al.
# Submitted via: ExactAudioCopy v1.3
#
DISCID=35048b06
DTITLE=Mac McCloud - My Heart Is Sinking
DYEAR=2019
DGENRE=Guitar Blues
TTITLE0=Frankie And Johnny Boogie
TTITLE1=Dont Let Nobody Drag Your Spirit Down
TTITLE2=My Heart Is Sinking
TTITLE3=Can't Stand The Pain
TTITLE4=Henry The VIII
TTITLE5=Feel Like Going Home
EXTD=
EXTT0=
EXTT1=
EXTT2=
EXTT3=
EXTT4=
EXTT5=
PLAYORDER=
